<?xml version="1.0" encoding="UTF-8" standalone="no"?>
<!-- Uploaded to: SVG Repo, www.svgrepo.com, Generator: SVG Repo Mixer Tools -->

<svg
   width="16"
   height="16"
   viewBox="0 0 0.48 0.48"
   fill="none"
   version="1.1"
   id="svg142"
   sodipodi:docname="icon_base.svg"
   inkscape:version="1.2.2 (732a01da63, 2022-12-09)"
   inkscape:export-filename="..\..\OneDrive\사진\downloadit\icon_dark.png"
   inkscape:export-xdpi="96"
   inkscape:export-ydpi="96"
   xmlns:inkscape="http://www.inkscape.org/namespaces/inkscape"
   xmlns:sodipodi="http://sodipodi.sourceforge.net/DTD/sodipodi-0.dtd"
   xmlns="http://www.w3.org/2000/svg"
   xmlns:svg="http://www.w3.org/2000/svg">
  <defs
     id="defs146" />
  <sodipodi:namedview
     id="namedview144"
     pagecolor="#ffffff"
     bordercolor="#000000"
     borderopacity="0.25"
     inkscape:showpageshadow="2"
     inkscape:pageopacity="0.0"
     inkscape:pagecheckerboard="0"
     inkscape:deskcolor="#d1d1d1"
     showgrid="false"
     inkscape:zoom="25.52"
     inkscape:cx="25.901254"
     inkscape:cy="10.658307"
     inkscape:window-width="1920"
     inkscape:window-height="1094"
     inkscape:window-x="5989"
     inkscape:window-y="690"
     inkscape:window-maximized="1"
     inkscape:current-layer="svg142" />
  <path
     fill-rule="evenodd"
     clip-rule="evenodd"
     d="M 0,0.24 C 0,0.1268628 0,0.07029432 0.03514728,0.03514728 0.07029432,0 0.1268628,0 0.24,0 0.35313599,0 0.40970641,0 0.44485199,0.03514728 0.48,0.07029432 0.48,0.1268628 0.48,0.24 c 0,0.113136 0,0.1697064 -0.035148,0.204852 C 0.40970641,0.48 0.35313599,0.48 0.24,0.48 0.1268628,0.48 0.07029432,0.48 0.03514728,0.444852 0,0.4097064 0,0.353136 0,0.24 Z M 0.24,0.102 c 0.009941,0 0.018,0.008059 0.018,0.018 V 0.2445432 L 0.2992728,0.2032728 c 0.00703,-0.00703 0.0184248,-0.00703 0.0254544,0 0.00703,0.00703 0.00703,0.0184248 0,0.0254544 l -0.072,0.072 C 0.2493528,0.304104 0.2447736,0.306 0.24,0.306 0.235226,0.306 0.230647,0.304104 0.2272728,0.3007272 l -0.0720007,-0.072 c -0.007029,-0.00703 -0.007029,-0.0184248 0,-0.0254544 0.007029,-0.00703 0.0184265,-0.00703 0.0254558,0 L 0.222,0.2445432 V 0.12 c 0,-0.009941 0.008059,-0.018 0.018,-0.018 z m -0.096,0.24 c -0.009941,0 -0.018,0.008059 -0.018,0.018 0,0.009941 0.008059,0.018 0.018,0.018 h 0.192 c 0.009941,0 0.018,-0.008059 0.018,-0.018 0,-0.009941 -0.008059,-0.018 -0.018,-0.018 z"
     fill="#1C274C"
     id="path140"
     style="fill:#000000;stroke-width:0.0239999"
     inkscape:export-filename="icon.svg"
     inkscape:export-xdpi="36.860001"
     inkscape:export-ydpi="36.860001" />
</svg>
